{"title":"BloodRayne 2, Deliverance 2007 DVDrip English Klam","uid":6480167,"size":1385863611,"categoryP":"video","categoryS":"movies","magnet":"?xt=urn:btih:24376731ac9126afde72fac486b45f3b3c9a3182&amp;dn=BloodRayne+2%2C+Deliverance+2007+DVDrip+English+Klam&amp;tr=udp%3A%2F%2Ftracker.openbittorrent.com%3A80&amp;tr=udp%3A%2F%2Fopen.demonii.com%3A1337&amp;tr=udp%3A%2F%2Ftracker.coppersurfer.tk%3A6969&amp;tr=udp%3A%2F%2Fexodus.desync.com%3A6969","seeders":0,"leechers":1,"uploader":"Klambake","files":-1,"time":1308483892,"description":"With: Kristanna Loken, Ben Kingsley and Michelle Rodriguez\n\nTijdens de tijd van het Wilde Westen zijn het niet alleen de stoere cowboys die voor gevaar zorgen; er lopen namelijk ook vampieren rond. En wie had ooit gedacht dat Billy the Kid een vampier was! Het is aan Rayne om het stadje Deliverance veilig te maken en te ontdoen van deze vampieren, ware het niet dat oppervampier Billy the Kid zich niet gemakkelijk gewonnen geeft.\n\nRayne, the half-human/half-vampire warrior, ventures to America's 1880's Wild West to stop the vampired Billy the Kid and his posse of vampire cowboys. \n\n------------------ Dutch Friends ------------------\n\nYou can find my Friends at: http://www.Film-Test.nl \n                    \n------ They got my dutchs subs ---- and more ------\n\nGeneral:\n\nComplete name                    : BloodRayne 2, Deliverance\\BloodRayne Twoo.avi\nFormat                           : AVI\nFormat/Info                      : Audio Video Interleave\nFile size                        : 1.29 GiB\nDuration                         : 1h 35mn\nOverall bit rate                 : 1 943 Kbps\n\nVideo:\n\nFormat                           : MPEG-4 Visual\nFormat profile                   : Simple@L3\nFormat settings, BVOP            : No\nFormat settings, QPel            : No\nFormat settings, GMC             : No warppoints\nFormat settings, Matrix          : Default (H.263)\nCodec ID                         : XVID\nCodec ID/Hint                    : XviD\nDuration                         : 1h 35mn\nBit rate                         : 1 548 Kbps\nWidth                            : 652 pixels\nHeight                           : 352 pixels\nDisplay aspect ratio             : 1.852\nFrame rate                       : 25.000 fps\nColor space                      : YUV\nChroma subsampling               : 4:2:0\nBit depth                        : 8 bits\nScan type                        : Progressive\nBits/(Pixel*Frame)               : 0.270\nStream size                      : 1.03 GiB (80%)\nWriting library                  : XviD 1.1.2 (UTC 2006-11-01)\n\nAudio:\n\nFormat                           : AC-3\nFormat/Info                      : Audio Coding 3\nMode extension                   : CM (complete main)\nCodec ID                         : 2000\nDuration                         : 1h 35mn\nBit rate mode                    : Constant\nBit rate                         : 384 Kbps\nChannel(s)                       : 6 channels\nChannel positions                : Front: L C R, Side: L R, LFE\nSampling rate                    : 48.0 KHz\nBit depth                        : 16 bits\nStream size                      : 261 MiB (20%)\nAlignment                        : Aligned on interleaves\nInterleave, duration             : 32 ms (0.80 video frame)\nInterleave, preload duration     : 160 ms\n\n","torrent":{"xt":"urn:btih:24376731ac9126afde72fac486b45f3b3c9a3182","amp;dn":"BloodRayne+2%2C+Deliverance+2007+DVDrip+English+Klam","amp;tr":["udp%3A%2F%2Ftracker.openbittorrent.com%3A80","udp%3A%2F%2Fopen.demonii.com%3A1337","udp%3A%2F%2Ftracker.coppersurfer.tk%3A6969","udp%3A%2F%2Fexodus.desync.com%3A6969"],"infoHash":"24376731ac9126afde72fac486b45f3b3c9a3182","infoHashBuffer":{"type":"Buffer","data":[36,55,103,49,172,145,38,175,222,114,250,196,134,180,95,59,60,154,49,130]},"announce":[],"urlList":[]}}